HIERARCHY
ROOT Hips
{
	OFFSET 0.000000 88.474243 0.000000
	CHANNELS 6 Xposition Yposition Zposition Zrotation Yrotation Xrotation 
	JOINT Hips_Spine
	{
		OFFSET 0.000000 0.000000 0.000000
		CHANNELS 3 Zrotation Yrotation Xrotation
		JOINT Spine
		{
			OFFSET 0.005100 8.711998 -0.691000
			CHANNELS 3 Zrotation Yrotation Xrotation
			JOINT Spine1
			{
				OFFSET -0.009200 8.660301 -1.275000
				CHANNELS 3 Zrotation Yrotation Xrotation
				JOINT Spine2
				{
					OFFSET 0.006300 9.852501 -1.857000
					CHANNELS 3 Zrotation Yrotation Xrotation
					JOINT Spine2_Neck
					{
						OFFSET 0.000000 0.000000 0.000000
						CHANNELS 3 Zrotation Yrotation Xrotation
						JOINT Neck
						{
							OFFSET 0.016300 11.420799 -0.263300
							CHANNELS 3 Zrotation Yrotation Xrotation
							End Site #name: Head
							{
								OFFSET -0.019200 9.262405 2.362500
							}
						}
					}
					JOINT Spine2_LeftShoulder
					{
						OFFSET 0.000000 0.000000 0.000000
						CHANNELS 3 Zrotation Yrotation Xrotation
						JOINT LeftShoulder
						{
							OFFSET 5.616900 6.732201 -0.345700
							CHANNELS 3 Zrotation Yrotation Xrotation
							JOINT LeftArm
							{
								OFFSET 10.664888 -0.183372 -2.440700
								CHANNELS 3 Zrotation Yrotation Xrotation
								JOINT LeftForeArm
								{
									OFFSET 27.459126 0.000000 0.000000
									CHANNELS 3 Zrotation Yrotation Xrotation
									End Site #name: LeftHand
									{
										OFFSET 21.306858 0.000000 0.000000
									}
								}
							}
						}
					}
					JOINT Spine2_RightShoulder
					{
						OFFSET 0.000000 0.000000 0.000000
						CHANNELS 3 Zrotation Yrotation Xrotation
						JOINT RightShoulder
						{
							OFFSET -5.580300 6.737503 -0.344400
							CHANNELS 3 Zrotation Yrotation Xrotation
							JOINT RightArm
							{
								OFFSET -10.679335 -0.188484 -2.383900
								CHANNELS 3 Zrotation Yrotation Xrotation
								JOINT RightForeArm
								{
									OFFSET -27.503529 0.000000 0.000000
									CHANNELS 3 Zrotation Yrotation Xrotation
									End Site #name: RightHand
									{
										OFFSET -21.306808 0.000000 0.000000
									}
								}
							}
						}
					}
				}
			}
		}
	}
	JOINT Hips_LeftUpLeg
	{
		OFFSET 0.000000 0.000000 0.000000
		CHANNELS 3 Zrotation Yrotation Xrotation
		JOINT LeftUpLeg
		{
			OFFSET 6.857700 -6.739601 0.312100
			CHANNELS 3 Zrotation Yrotation Xrotation
			JOINT LeftLeg
			{
				OFFSET -0.367590 -34.731552 -4.572400
				CHANNELS 3 Zrotation Yrotation Xrotation
				End Site #name: LeftFoot
				{
					OFFSET 0.367590 -34.656704 -6.067400
				}
			}
		}
	}
	JOINT Hips_RightUpLeg
	{
		OFFSET 0.000000 0.000000 0.000000
		CHANNELS 3 Zrotation Yrotation Xrotation
		JOINT RightUpLeg
		{
			OFFSET -6.876100 -6.733299 0.301000
			CHANNELS 3 Zrotation Yrotation Xrotation
			JOINT RightLeg
			{
				OFFSET 0.347353 -34.795158 -4.515900
				CHANNELS 3 Zrotation Yrotation Xrotation
				End Site #name: RightFoot
				{
					OFFSET -0.347353 -34.589367 -6.070300
				}
			}
		}
	}
}
MOTION
Frames: 9
Frame Time: 0.041667
0.328553 0.010565 -1.423612 -1.755977 4.645228 -3.429361 0.000000 -0.000000 0.000000 0.726849 1.984484 0.895689 -2.346821 0.583306 4.325248 0.000000 0.000000 0.000000 -2.643294 0.575432 3.631550 0.250639 -1.116587 6.514221 -2.431219 0.444801 4.433479 -1.415256 5.294574 -0.864410 -65.792554 -6.888837 63.589303 0.327172 -31.897004 0.056150 -2.385073 0.562150 3.533388 1.204818 9.102126 2.603718 72.788205 0.994450 50.116537 0.044077 65.391422 0.264050 0.000000 0.000000 -0.000000 2.972010 13.344737 -11.372370 3.737362 8.136026 15.065796 0.000000 -0.000000 0.000000 -2.355126 -9.846690 -11.024763 -1.503893 -1.934176 14.373266 
0.189903 0.008943 -1.470898 -1.679977 4.688663 -3.419533 0.000000 -0.000000 0.000000 0.782496 1.970269 0.921204 -2.321440 0.571348 4.309133 0.000000 0.000000 0.000000 -2.618781 0.566588 3.620620 0.256814 -1.110889 6.517819 -2.409550 0.436768 4.412316 -1.427266 5.287475 -0.866372 -65.821286 -6.903905 63.507029 0.326917 -31.889091 0.050649 -2.363249 0.552093 3.518975 1.180701 9.081114 2.599307 72.804861 0.948204 50.234854 0.032095 65.209903 0.253252 0.000000 0.000000 -0.000000 3.008317 13.419708 -11.400276 3.751596 8.104861 15.054226 0.000000 -0.000000 0.000000 -2.315470 -9.824117 -11.035590 -1.499278 -1.952908 14.377629 
0.052851 0.007071 -1.517843 -1.605260 4.731982 -3.409748 0.000000 -0.000000 0.000000 0.839102 1.952047 0.941572 -2.291237 0.557240 4.295949 0.000000 0.000000 0.000000 -2.588133 0.556315 3.614548 0.262125 -1.102964 6.522229 -2.381377 0.427482 4.398226 -1.437842 5.293339 -0.871486 -65.840448 -6.933978 63.440890 0.326651 -31.859177 0.045717 -2.334917 0.540496 3.508516 1.162391 9.049404 2.592549 72.793421 0.940123 50.347517 0.022752 65.032544 0.245301 0.000000 0.000000 -0.000000 3.043084 13.497242 -11.428296 3.766945 8.071799 15.047725 0.000000 -0.000000 0.000000 -2.278086 -9.800062 -11.046615 -1.494287 -1.968597 14.385520 
-0.081759 0.004977 -1.564538 -1.531979 4.767392 -3.402445 0.000000 -0.000000 0.000000 0.898799 1.927526 0.964344 -2.258462 0.542542 4.287494 0.000000 0.000000 0.000000 -2.554081 0.545596 3.613055 0.266903 -1.090898 6.525647 -2.349530 0.417701 4.385924 -1.453803 5.297114 -0.876786 -65.858800 -6.957614 63.338201 0.327006 -31.827747 0.040283 -2.303833 0.528020 3.502643 1.152767 9.013989 2.583054 72.723077 0.978577 50.392357 0.015688 64.997470 0.239597 0.000000 0.000000 -0.000000 3.079921 13.578160 -11.454468 3.781136 8.044263 15.045971 0.000000 -0.000000 0.000000 -2.243072 -9.773957 -11.059808 -1.486570 -1.985331 14.396849 
-0.213121 0.002752 -1.611001 -1.461439 4.798931 -3.393426 0.000000 -0.000000 0.000000 0.955765 1.903316 0.988976 -2.224370 0.526919 4.281274 0.000000 0.000000 0.000000 -2.519359 0.534775 3.614567 0.272910 -1.077156 6.525508 -2.317122 0.407723 4.377649 -1.465699 5.298961 -0.881637 -65.881651 -6.975861 63.248146 0.325539 -31.764220 0.036762 -2.273075 0.515131 3.499232 1.154679 8.971808 2.574636 72.579732 1.046041 50.397948 0.010387 65.122762 0.236818 0.000000 0.000000 -0.000000 3.114951 13.660276 -11.481999 3.795353 8.017401 15.044894 0.000000 -0.000000 0.000000 -2.209586 -9.749841 -11.075139 -1.477423 -2.002290 14.411662 
-0.341195 0.000413 -1.657185 -1.392170 4.824576 -3.385192 0.000000 -0.000000 0.000000 1.008382 1.878701 1.021563 -2.192457 0.511832 4.277461 0.000000 0.000000 0.000000 -2.486474 0.524619 3.617334 0.278483 -1.060934 6.520025 -2.289789 0.398715 4.369267 -1.476789 5.311260 -0.888323 -65.902342 -6.994361 63.130362 0.325966 -31.702421 0.032628 -2.243903 0.502513 3.499098 1.155437 8.933619 2.566240 72.353632 1.141643 50.331032 0.006737 65.453935 0.236912 0.000000 0.000000 -0.000000 3.151169 13.744672 -11.505386 3.807816 7.993383 15.039188 0.000000 -0.000000 0.000000 -2.177012 -9.730604 -11.090402 -1.469269 -2.021171 14.426787 
-0.465763 -0.001936 -1.703136 -1.322540 4.850517 -3.378153 0.000000 -0.000000 0.000000 1.058688 1.854764 1.059322 -2.164934 0.497834 4.274579 0.000000 0.000000 0.000000 -2.457481 0.514832 3.619758 0.287384 -1.045310 6.508749 -2.266871 0.390517 4.363985 -1.495245 5.327521 -0.893970 -65.923423 -7.002590 63.035689 0.324486 -31.636176 0.029303 -2.218202 0.490587 3.499162 1.153365 8.900268 2.559505 72.052795 1.257907 50.191606 0.007428 65.949221 0.240560 0.000000 0.000000 -0.000000 3.185592 13.830227 -11.526905 3.818574 7.971800 15.033529 0.000000 -0.000000 0.000000 -2.147884 -9.714430 -11.108412 -1.463848 -2.042668 14.448982 
-0.586674 -0.004377 -1.748890 -1.252306 4.871308 -3.372139 0.000000 -0.000000 0.000000 1.109946 1.832193 1.100797 -2.141490 0.485083 4.272308 0.000000 0.000000 0.000000 -2.433036 0.506365 3.621802 0.295971 -1.028189 6.490913 -2.247099 0.383151 4.356407 -1.510671 5.344586 -0.899827 -65.937557 -6.994347 62.919627 0.324151 -31.560352 0.026761 -2.197175 0.479928 3.500278 1.152361 8.872340 2.557088 71.699569 1.381223 50.009720 0.007358 66.611530 0.244807 0.000000 0.000000 -0.000000 3.218969 13.912166 -11.543076 3.829146 7.952363 15.024282 0.000000 -0.000000 0.000000 -2.123674 -9.702113 -11.124613 -1.464298 -2.068676 14.468818 
-0.703799 -0.006849 -1.794597 -1.181443 4.890811 -3.364200 0.000000 -0.000000 0.000000 1.155505 1.811080 1.148960 -2.122837 0.474359 4.269104 0.000000 0.000000 0.000000 -2.412883 0.498835 3.621896 0.304368 -1.012768 6.470588 -2.230742 0.376416 4.349265 -1.527916 5.371906 -0.909173 -65.949845 -6.985798 62.814838 0.323614 -31.490637 0.022922 -2.179942 0.470119 3.499834 1.150416 8.849777 2.557668 71.324830 1.489039 49.818079 0.010878 67.327174 0.251137 0.000000 0.000000 -0.000000 3.246469 13.984920 -11.555453 3.838459 7.934613 15.008634 0.000000 -0.000000 0.000000 -2.099386 -9.694339 -11.141567 -1.468282 -2.097219 14.486632 
